<svg width="121" height="120" viewBox="0 0 121 120" fill="none" xmlns="http://www.w3.org/2000/svg">
<path d="M60.64 119.99C93.7771 119.99 120.64 93.129 120.64 59.9948C120.64 26.8606 93.7771 0 60.64 0C27.5029 0 0.640015 26.8606 0.640015 59.9948C0.640015 93.129 27.5029 119.99 60.64 119.99Z" fill="#C58AFF"/>
<path d="M60.64 114.645C90.825 114.645 115.295 90.1772 115.295 59.9948C115.295 29.8124 90.825 5.34473 60.64 5.34473C30.455 5.34473 5.9852 29.8124 5.9852 59.9948C5.9852 90.1772 30.455 114.645 60.64 114.645Z" fill="#6B6961"/>
<path d="M60.64 0.0104599C27.5019 0.0104599 0.640015 26.87 0.640015 60.0052C0.640015 93.1404 27.5019 120 60.64 120C93.7781 120 120.64 93.1404 120.64 60.0052C120.64 26.87 93.7781 0.0104599 60.64 0.0104599ZM60.64 114.655C30.4517 114.655 5.9852 90.1909 5.9852 60.0052C5.9852 29.8091 30.4517 5.34472 60.64 5.34472C90.8283 5.34472 115.295 29.8091 115.295 59.9948C115.295 90.1804 90.8283 114.655 60.64 114.655Z" fill="#C58AFF"/>
<path d="M87.209 92.1991L88.5375 96.3096H92.868L89.3639 98.8512L90.7028 102.962L87.209 100.42L83.7049 102.962L85.0438 98.8512L81.55 96.3096H85.8701L87.209 92.1991ZM105.054 69.1153L106.383 73.2258H110.713L107.209 75.7674L108.548 79.878L105.054 77.3364L101.55 79.878L102.889 75.7674L99.3952 73.2258H103.715L105.054 69.1153ZM104.563 40.0279L105.891 44.1384H110.222L106.717 46.68L108.056 50.7906L104.563 48.2489L101.058 50.7906L102.397 46.68L98.9036 44.1384H103.224L104.563 40.0279ZM87.8471 16.4212L89.186 20.5317H93.5061L90.0124 23.0733L91.3513 27.1838L87.8471 24.6422L84.3534 27.1838L85.6923 23.0733L82.1881 20.5317H86.5187L87.8471 16.4212Z" fill="#C58AFF"/>
<path d="M60.6923 100.765L62.0312 104.876H66.3513L62.8576 107.417L64.1965 111.528L60.6923 108.986L57.1986 111.528L58.5375 107.417L55.0333 104.876H59.3639L60.6923 100.765Z" fill="#C58AFF"/>
<path d="M60.6923 7.58302L62.0312 11.6935H66.3513L62.8576 14.2352L64.1965 18.3457L60.6923 15.8041L57.1986 18.3457L58.5375 14.2352L55.0333 11.6935H59.3638L60.6923 7.58302ZM34.071 92.1991L32.7425 96.3096H28.412L31.9161 98.8512L30.5772 102.962L34.071 100.42L37.5751 102.962L36.2362 98.8512L39.7299 96.3096H35.4099L34.071 92.1991ZM16.2258 69.1153L14.8973 73.2258H10.5668L14.071 75.7675L12.732 79.878L16.2258 77.3364L19.73 79.878L18.391 75.7675L21.8848 73.2258H17.5647L16.2258 69.1153ZM16.7174 40.0279L15.3889 44.1384H11.0584L14.5626 46.68L13.2237 50.7906L16.7174 48.2489L20.2216 50.7906L18.8827 46.68L22.3764 44.1384H18.0563L16.7174 40.0279ZM33.4329 16.4212L32.094 20.5317H27.7739L31.2676 23.0733L29.9287 27.1838L33.4329 24.6422L36.9266 27.1838L35.5877 23.0733L39.0919 20.5317H34.7613L33.4329 16.4212Z" fill="#C58AFF"/>
<path d="M93.7676 43.3644C93.7676 42.9983 93.5793 42.6532 93.2969 42.4858L60.6818 23.9728L28.0249 42.4649C27.7111 42.6532 27.5124 42.9983 27.5124 43.3644L27.4601 47.9352C27.4601 48.5104 27.9308 48.9811 28.5061 48.9811H92.7634C93.3387 48.9811 93.8095 48.5104 93.8095 47.9352L93.7676 43.3644Z" fill="#C58AFF"/>
<path d="M85.5772 42.1198L60.64 27.9683L35.7028 42.1198H85.5772Z" fill="#6B6961"/>
<path d="M76.4036 40.394L60.64 31.4408L44.8764 40.394H76.4036ZM91.3827 81.541H29.8973C29.2906 81.541 28.7153 81.8025 28.3074 82.2522L24.0814 86.9694C23.7885 87.2936 24.0187 87.8062 24.458 87.8062H96.822C97.2509 87.8062 97.481 87.2936 97.1986 86.9694L92.9622 82.2522C92.5647 81.8025 91.9789 81.541 91.3827 81.541ZM87.4496 74.732H83.7049C83.0877 74.732 82.5856 74.2299 82.5856 73.6128V56.8988C82.5856 56.2817 83.0877 55.7797 83.7049 55.7797H87.4496C88.0668 55.7797 88.5689 56.2817 88.5689 56.8988V73.6233C88.5689 74.2404 88.0668 74.732 87.4496 74.732ZM88.7362 54.535H82.4287C81.958 54.535 81.55 54.2212 81.4141 53.7715L80.9329 52.1084C80.7341 51.439 81.2467 50.7696 81.9475 50.7696H89.2174C89.9182 50.7696 90.4203 51.439 90.2321 52.1084L89.7509 53.7715C89.6149 54.2212 89.1965 54.535 88.7362 54.535ZM82.4182 75.9871H88.7258C89.1965 75.9871 89.6044 76.3009 89.7404 76.7506L90.2216 78.4137C90.4203 79.0831 89.9078 79.7525 89.2069 79.7525H81.9371C81.2362 79.7525 80.7341 79.0831 80.9224 78.4137L81.4036 76.7506C81.5396 76.2904 81.958 75.9871 82.4182 75.9871ZM38.8095 74.732H35.0647C34.4475 74.732 33.9454 74.2299 33.9454 73.6128V56.8988C33.9454 56.2817 34.4475 55.7797 35.0647 55.7797H38.8095C39.4266 55.7797 39.9287 56.2817 39.9287 56.8988V73.6233C39.9182 74.2404 39.4162 74.732 38.8095 74.732ZM40.0856 54.535H33.7781C33.3074 54.535 32.8994 54.2212 32.7634 53.7715L32.2823 52.1084C32.0835 51.439 32.5961 50.7696 33.2969 50.7696H40.5668C41.2676 50.7696 41.7697 51.439 41.5814 52.1084L41.1003 53.7715C40.9643 54.2212 40.5563 54.535 40.0856 54.535ZM33.7781 75.9871H40.0856C40.5563 75.9871 40.9643 76.3009 41.1003 76.7506L41.5814 78.4137C41.7802 79.0831 41.2676 79.7525 40.5668 79.7525H33.2969C32.5961 79.7525 32.094 79.0831 32.2823 78.4137L32.7634 76.7506C32.8994 76.2904 33.3074 75.9871 33.7781 75.9871ZM55.0228 74.732H51.2781C50.6609 74.732 50.1588 74.2299 50.1588 73.6128V56.8988C50.1588 56.2817 50.6609 55.7797 51.2781 55.7797H55.0228C55.64 55.7797 56.1421 56.2817 56.1421 56.8988V73.6233C56.1393 73.9183 56.0202 74.2003 55.8106 74.4079C55.601 74.6155 55.3179 74.732 55.0228 74.732ZM56.299 54.535H49.9915C49.5208 54.535 49.1128 54.2212 48.9768 53.7715L48.4956 52.1084C48.2969 51.439 48.8095 50.7696 49.5103 50.7696H56.7802C57.481 50.7696 57.9831 51.439 57.7948 52.1084L57.3136 53.7715C57.1777 54.2212 56.7697 54.535 56.299 54.535ZM49.9915 75.9871H56.299C56.7697 75.9871 57.1777 76.3009 57.3136 76.7506L57.7948 78.4137C57.9936 79.0831 57.481 79.7525 56.7802 79.7525H49.5103C48.8095 79.7525 48.3074 79.0831 48.4956 78.4137L48.9768 76.7506C49.1128 76.2904 49.5208 75.9871 49.9915 75.9871ZM71.2362 74.732H67.4915C66.8743 74.732 66.3722 74.2299 66.3722 73.6128V56.8988C66.3722 56.2817 66.8743 55.7797 67.4915 55.7797H71.2362C71.8534 55.7797 72.3555 56.2817 72.3555 56.8988V73.6233C72.3527 73.9183 72.2336 74.2003 72.024 74.4079C71.8144 74.6155 71.5313 74.732 71.2362 74.732ZM72.5124 54.535H66.2049C65.7341 54.535 65.3262 54.2212 65.1902 53.7715L64.709 52.1084C64.5103 51.439 65.0228 50.7696 65.7237 50.7696H72.9936C73.6944 50.7696 74.1965 51.439 74.0082 52.1084L73.527 53.7715C73.391 54.2212 72.9831 54.535 72.5124 54.535ZM66.2049 75.9871H72.5124C72.9831 75.9871 73.391 76.3009 73.527 76.7506L74.0082 78.4137C74.2069 79.0831 73.6944 79.7525 72.9936 79.7525H65.7237C65.0228 79.7525 64.5208 79.0831 64.709 78.4137L65.1902 76.7506C65.3262 76.2904 65.7446 75.9871 66.2049 75.9871Z" fill="#C58AFF"/>
</svg>
