<svg width="121" height="121" viewBox="0 0 121 121" fill="none" xmlns="http://www.w3.org/2000/svg">
<path d="M60.64 120.05C93.7771 120.05 120.64 93.189 120.64 60.0548C120.64 26.9206 93.7771 0.0599976 60.64 0.0599976C27.5029 0.0599976 0.640015 26.9206 0.640015 60.0548C0.640015 93.189 27.5029 120.05 60.64 120.05Z" fill="#FFF176"/>
<path d="M60.64 114.705C90.825 114.705 115.295 90.2372 115.295 60.0548C115.295 29.8724 90.825 5.40472 60.64 5.40472C30.455 5.40472 5.9852 29.8724 5.9852 60.0548C5.9852 90.2372 30.455 114.705 60.64 114.705Z" fill="#F2BC1A"/>
<path d="M60.64 0.0704575C27.5019 0.0704575 0.640015 26.93 0.640015 60.0652C0.640015 93.2004 27.5019 120.06 60.64 120.06C93.7781 120.06 120.64 93.2004 120.64 60.0652C120.64 26.93 93.7781 0.0704575 60.64 0.0704575ZM60.64 114.715C30.4517 114.715 5.9852 90.2509 5.9852 60.0652C5.9852 29.8691 30.4517 5.40472 60.64 5.40472C90.8283 5.40472 115.295 29.8691 115.295 60.0548C115.295 90.2404 90.8283 114.715 60.64 114.715Z" fill="#FFF176"/>
<path d="M87.209 92.2591L88.5375 96.3696H92.868L89.3639 98.9112L90.7028 103.022L87.209 100.48L83.7049 103.022L85.0438 98.9112L81.55 96.3696H85.8701L87.209 92.2591ZM105.054 69.1753L106.383 73.2858H110.713L107.209 75.8274L108.548 79.938L105.054 77.3963L101.55 79.938L102.889 75.8274L99.3952 73.2858H103.715L105.054 69.1753ZM104.563 40.0879L105.891 44.1984H110.222L106.717 46.74L108.056 50.8505L104.563 48.3089L101.058 50.8505L102.397 46.74L98.9036 44.1984H103.224L104.563 40.0879ZM87.8471 16.4812L89.186 20.5917H93.5061L90.0124 23.1333L91.3513 27.2438L87.8471 24.7022L84.3534 27.2438L85.6923 23.1333L82.1881 20.5917H86.5187L87.8471 16.4812Z" fill="#FFF176"/>
<path d="M60.6923 100.825L62.0312 104.936H66.3513L62.8576 107.477L64.1965 111.588L60.6923 109.046L57.1986 111.588L58.5375 107.477L55.0333 104.936H59.3639L60.6923 100.825Z" fill="#FFF176"/>
<path d="M60.6923 7.64302L62.0312 11.7535H66.3513L62.8576 14.2952L64.1965 18.4057L60.6923 15.8641L57.1986 18.4057L58.5375 14.2952L55.0333 11.7535H59.3638L60.6923 7.64302ZM34.071 92.2591L32.7425 96.3696H28.412L31.9161 98.9112L30.5772 103.022L34.071 100.48L37.5751 103.022L36.2362 98.9112L39.7299 96.3696H35.4099L34.071 92.2591ZM16.2258 69.1753L14.8973 73.2858H10.5668L14.071 75.8275L12.732 79.938L16.2258 77.3964L19.73 79.938L18.391 75.8275L21.8848 73.2858H17.5647L16.2258 69.1753ZM16.7174 40.0879L15.3889 44.1984H11.0584L14.5626 46.74L13.2237 50.8506L16.7174 48.3089L20.2216 50.8506L18.8827 46.74L22.3764 44.1984H18.0563L16.7174 40.0879ZM33.4329 16.4812L32.094 20.5917H27.7739L31.2676 23.1333L29.9287 27.2438L33.4329 24.7022L36.9266 27.2438L35.5877 23.1333L39.0919 20.5917H34.7613L33.4329 16.4812Z" fill="#FFF176"/>
<path d="M93.7676 43.4244C93.7676 43.0583 93.5793 42.7132 93.2969 42.5458L60.6818 24.0328L28.0249 42.5249C27.7111 42.7132 27.5124 43.0583 27.5124 43.4244L27.4601 47.9952C27.4601 48.5704 27.9308 49.0411 28.5061 49.0411H92.7634C93.3387 49.0411 93.8095 48.5704 93.8095 47.9952L93.7676 43.4244Z" fill="#FFF176"/>
<path d="M85.5772 42.1798L60.64 28.0283L35.7028 42.1798H85.5772Z" fill="#F2BC1A"/>
<path d="M76.4036 40.454L60.64 31.5008L44.8764 40.454H76.4036ZM91.3827 81.601H29.8973C29.2906 81.601 28.7153 81.8625 28.3074 82.3122L24.0814 87.0294C23.7885 87.3536 24.0187 87.8662 24.458 87.8662H96.822C97.2509 87.8662 97.481 87.3536 97.1986 87.0294L92.9622 82.3122C92.5647 81.8625 91.9789 81.601 91.3827 81.601ZM87.4496 74.792H83.7049C83.0877 74.792 82.5856 74.2899 82.5856 73.6728V56.9588C82.5856 56.3417 83.0877 55.8397 83.7049 55.8397H87.4496C88.0668 55.8397 88.5689 56.3417 88.5689 56.9588V73.6833C88.5689 74.3004 88.0668 74.792 87.4496 74.792ZM88.7362 54.595H82.4287C81.958 54.595 81.55 54.2812 81.4141 53.8315L80.9329 52.1684C80.7341 51.499 81.2467 50.8296 81.9475 50.8296H89.2174C89.9182 50.8296 90.4203 51.499 90.2321 52.1684L89.7509 53.8315C89.6149 54.2812 89.1965 54.595 88.7362 54.595ZM82.4182 76.0471H88.7258C89.1965 76.0471 89.6044 76.3609 89.7404 76.8106L90.2216 78.4737C90.4203 79.1431 89.9078 79.8125 89.2069 79.8125H81.9371C81.2362 79.8125 80.7341 79.1431 80.9224 78.4737L81.4036 76.8106C81.5396 76.3504 81.958 76.0471 82.4182 76.0471ZM38.8095 74.792H35.0647C34.4475 74.792 33.9454 74.2899 33.9454 73.6728V56.9588C33.9454 56.3417 34.4475 55.8397 35.0647 55.8397H38.8095C39.4266 55.8397 39.9287 56.3417 39.9287 56.9588V73.6833C39.9182 74.3004 39.4162 74.792 38.8095 74.792ZM40.0856 54.595H33.7781C33.3074 54.595 32.8994 54.2812 32.7634 53.8315L32.2823 52.1684C32.0835 51.499 32.5961 50.8296 33.2969 50.8296H40.5668C41.2676 50.8296 41.7697 51.499 41.5814 52.1684L41.1003 53.8315C40.9643 54.2812 40.5563 54.595 40.0856 54.595ZM33.7781 76.0471H40.0856C40.5563 76.0471 40.9643 76.3609 41.1003 76.8106L41.5814 78.4737C41.7802 79.1431 41.2676 79.8125 40.5668 79.8125H33.2969C32.5961 79.8125 32.094 79.1431 32.2823 78.4737L32.7634 76.8106C32.8994 76.3504 33.3074 76.0471 33.7781 76.0471ZM55.0228 74.792H51.2781C50.6609 74.792 50.1588 74.2899 50.1588 73.6728V56.9588C50.1588 56.3417 50.6609 55.8397 51.2781 55.8397H55.0228C55.64 55.8397 56.1421 56.3417 56.1421 56.9588V73.6833C56.1393 73.9783 56.0202 74.2603 55.8106 74.4679C55.601 74.6755 55.3179 74.792 55.0228 74.792ZM56.299 54.595H49.9915C49.5208 54.595 49.1128 54.2812 48.9768 53.8315L48.4956 52.1684C48.2969 51.499 48.8095 50.8296 49.5103 50.8296H56.7802C57.481 50.8296 57.9831 51.499 57.7948 52.1684L57.3136 53.8315C57.1777 54.2812 56.7697 54.595 56.299 54.595ZM49.9915 76.0471H56.299C56.7697 76.0471 57.1777 76.3609 57.3136 76.8106L57.7948 78.4737C57.9936 79.1431 57.481 79.8125 56.7802 79.8125H49.5103C48.8095 79.8125 48.3074 79.1431 48.4956 78.4737L48.9768 76.8106C49.1128 76.3504 49.5208 76.0471 49.9915 76.0471ZM71.2362 74.792H67.4915C66.8743 74.792 66.3722 74.2899 66.3722 73.6728V56.9588C66.3722 56.3417 66.8743 55.8397 67.4915 55.8397H71.2362C71.8534 55.8397 72.3555 56.3417 72.3555 56.9588V73.6833C72.3527 73.9783 72.2336 74.2603 72.024 74.4679C71.8144 74.6755 71.5313 74.792 71.2362 74.792ZM72.5124 54.595H66.2049C65.7341 54.595 65.3262 54.2812 65.1902 53.8315L64.709 52.1684C64.5103 51.499 65.0228 50.8296 65.7237 50.8296H72.9936C73.6944 50.8296 74.1965 51.499 74.0082 52.1684L73.527 53.8315C73.391 54.2812 72.9831 54.595 72.5124 54.595ZM66.2049 76.0471H72.5124C72.9831 76.0471 73.391 76.3609 73.527 76.8106L74.0082 78.4737C74.2069 79.1431 73.6944 79.8125 72.9936 79.8125H65.7237C65.0228 79.8125 64.5208 79.1431 64.709 78.4737L65.1902 76.8106C65.3262 76.3504 65.7446 76.0471 66.2049 76.0471Z" fill="#FFF176"/>
</svg>
