<svg width="121" height="121" viewBox="0 0 121 121" fill="none" xmlns="http://www.w3.org/2000/svg">
<path d="M60.72 120.05C93.857 120.05 120.72 93.189 120.72 60.0548C120.72 26.9206 93.857 0.0599976 60.72 0.0599976C27.5829 0.0599976 0.719971 26.9206 0.719971 60.0548C0.719971 93.189 27.5829 120.05 60.72 120.05Z" fill="#067124"/>
<path d="M60.72 114.705C90.905 114.705 115.375 90.2372 115.375 60.0548C115.375 29.8724 90.905 5.40472 60.72 5.40472C30.535 5.40472 6.06519 29.8724 6.06519 60.0548C6.06519 90.2372 30.535 114.705 60.72 114.705Z" fill="#1AF230"/>
<path d="M60.72 0.0704575C27.5819 0.0704575 0.719971 26.93 0.719971 60.0652C0.719971 93.2004 27.5819 120.06 60.72 120.06C93.858 120.06 120.72 93.2004 120.72 60.0652C120.72 26.93 93.858 0.0704575 60.72 0.0704575ZM60.72 114.715C30.5317 114.715 6.06516 90.2509 6.06516 60.0652C6.06516 29.8691 30.5317 5.40472 60.72 5.40472C90.9083 5.40472 115.375 29.8691 115.375 60.0548C115.375 90.2404 90.9083 114.715 60.72 114.715Z" fill="#067124"/>
<path d="M87.289 92.2591L88.6175 96.3696H92.948L89.4438 98.9112L90.7827 103.022L87.289 100.48L83.7848 103.022L85.1237 98.9112L81.63 96.3696H85.9501L87.289 92.2591ZM105.134 69.1753L106.463 73.2858H110.793L107.289 75.8274L108.628 79.938L105.134 77.3963L101.63 79.938L102.969 75.8274L99.4752 73.2858H103.795L105.134 69.1753ZM104.643 40.0879L105.971 44.1984H110.302L106.797 46.74L108.136 50.8505L104.643 48.3089L101.138 50.8505L102.477 46.74L98.9836 44.1984H103.304L104.643 40.0879ZM87.9271 16.4812L89.266 20.5917H93.5861L90.0924 23.1333L91.4313 27.2438L87.9271 24.7022L84.4334 27.2438L85.7723 23.1333L82.2681 20.5917H86.5986L87.9271 16.4812Z" fill="#067124"/>
<path d="M60.7723 100.825L62.1112 104.936H66.4313L62.9376 107.477L64.2765 111.588L60.7723 109.046L57.2786 111.588L58.6175 107.477L55.1133 104.936H59.4438L60.7723 100.825Z" fill="#067124"/>
<path d="M60.7723 7.64302L62.1112 11.7535H66.4312L62.9375 14.2952L64.2764 18.4057L60.7723 15.8641L57.2785 18.4057L58.6174 14.2952L55.1133 11.7535H59.4438L60.7723 7.64302ZM34.1509 92.2591L32.8225 96.3696H28.4919L31.9961 98.9112L30.6572 103.022L34.1509 100.48L37.6551 103.022L36.3162 98.9112L39.8099 96.3696H35.4898L34.1509 92.2591ZM16.3057 69.1753L14.9773 73.2858H10.6467L14.1509 75.8275L12.812 79.938L16.3057 77.3964L19.8099 79.938L18.471 75.8275L21.9647 73.2858H17.6446L16.3057 69.1753ZM16.7974 40.0879L15.4689 44.1984H11.1384L14.6425 46.74L13.3036 50.8506L16.7974 48.3089L20.3015 50.8506L18.9626 46.74L22.4564 44.1984H18.1363L16.7974 40.0879ZM33.5128 16.4812L32.1739 20.5917H27.8538L31.3476 23.1333L30.0087 27.2438L33.5128 24.7022L37.0066 27.2438L35.6676 23.1333L39.1718 20.5917H34.8413L33.5128 16.4812Z" fill="#067124"/>
<path d="M93.8476 43.4244C93.8476 43.0583 93.6593 42.7132 93.3769 42.5458L60.7618 24.0328L28.1049 42.5249C27.7911 42.7132 27.5923 43.0583 27.5923 43.4244L27.54 47.9952C27.54 48.5704 28.0108 49.0411 28.5861 49.0411H92.8434C93.4187 49.0411 93.8894 48.5704 93.8894 47.9952L93.8476 43.4244Z" fill="#067124"/>
<path d="M85.6572 42.1798L60.72 28.0283L35.7827 42.1798H85.6572Z" fill="#1AF230"/>
<path d="M76.4835 40.454L60.7199 31.5008L44.9563 40.454H76.4835ZM91.4626 81.601H29.9772C29.3706 81.601 28.7952 81.8625 28.3873 82.3122L24.1613 87.0294C23.8685 87.3536 24.0986 87.8662 24.5379 87.8662H96.9019C97.3308 87.8662 97.5609 87.3536 97.2785 87.0294L93.0421 82.3122C92.6446 81.8625 92.0588 81.601 91.4626 81.601ZM87.5296 74.792H83.7848C83.1676 74.792 82.6655 74.2899 82.6655 73.6728V56.9588C82.6655 56.3417 83.1676 55.8397 83.7848 55.8397H87.5296C88.1467 55.8397 88.6488 56.3417 88.6488 56.9588V73.6833C88.6488 74.3004 88.1467 74.792 87.5296 74.792ZM88.8162 54.595H82.5086C82.0379 54.595 81.63 54.2812 81.494 53.8315L81.0128 52.1684C80.8141 51.499 81.3266 50.8296 82.0275 50.8296H89.2973C89.9982 50.8296 90.5003 51.499 90.312 52.1684L89.8308 53.8315C89.6948 54.2812 89.2764 54.595 88.8162 54.595ZM82.4982 76.0471H88.8057C89.2764 76.0471 89.6844 76.3609 89.8203 76.8106L90.3015 78.4737C90.5003 79.1431 89.9877 79.8125 89.2869 79.8125H82.017C81.3162 79.8125 80.8141 79.1431 81.0024 78.4737L81.4835 76.8106C81.6195 76.3504 82.0379 76.0471 82.4982 76.0471ZM38.8894 74.792H35.1446C34.5275 74.792 34.0254 74.2899 34.0254 73.6728V56.9588C34.0254 56.3417 34.5275 55.8397 35.1446 55.8397H38.8894C39.5065 55.8397 40.0086 56.3417 40.0086 56.9588V73.6833C39.9982 74.3004 39.4961 74.792 38.8894 74.792ZM40.1655 54.595H33.858C33.3873 54.595 32.9793 54.2812 32.8434 53.8315L32.3622 52.1684C32.1634 51.499 32.676 50.8296 33.3768 50.8296H40.6467C41.3475 50.8296 41.8496 51.499 41.6613 52.1684L41.1802 53.8315C41.0442 54.2812 40.6362 54.595 40.1655 54.595ZM33.858 76.0471H40.1655C40.6362 76.0471 41.0442 76.3609 41.1802 76.8106L41.6613 78.4737C41.8601 79.1431 41.3475 79.8125 40.6467 79.8125H33.3768C32.676 79.8125 32.1739 79.1431 32.3622 78.4737L32.8434 76.8106C32.9793 76.3504 33.3873 76.0471 33.858 76.0471ZM55.1028 74.792H51.358C50.7408 74.792 50.2388 74.2899 50.2388 73.6728V56.9588C50.2388 56.3417 50.7408 55.8397 51.358 55.8397H55.1028C55.7199 55.8397 56.222 56.3417 56.222 56.9588V73.6833C56.2193 73.9783 56.1001 74.2603 55.8905 74.4679C55.6809 74.6755 55.3978 74.792 55.1028 74.792ZM56.3789 54.595H50.0714C49.6007 54.595 49.1927 54.2812 49.0567 53.8315L48.5756 52.1684C48.3768 51.499 48.8894 50.8296 49.5902 50.8296H56.8601C57.5609 50.8296 58.063 51.499 57.8747 52.1684L57.3936 53.8315C57.2576 54.2812 56.8496 54.595 56.3789 54.595ZM50.0714 76.0471H56.3789C56.8496 76.0471 57.2576 76.3609 57.3936 76.8106L57.8747 78.4737C58.0735 79.1431 57.5609 79.8125 56.8601 79.8125H49.5902C48.8894 79.8125 48.3873 79.1431 48.5756 78.4737L49.0567 76.8106C49.1927 76.3504 49.6007 76.0471 50.0714 76.0471ZM71.3162 74.792H67.5714C66.9542 74.792 66.4521 74.2899 66.4521 73.6728V56.9588C66.4521 56.3417 66.9542 55.8397 67.5714 55.8397H71.3162C71.9333 55.8397 72.4354 56.3417 72.4354 56.9588V73.6833C72.4326 73.9783 72.3135 74.2603 72.1039 74.4679C71.8943 74.6755 71.6112 74.792 71.3162 74.792ZM72.5923 54.595H66.2848C65.8141 54.595 65.4061 54.2812 65.2701 53.8315L64.789 52.1684C64.5902 51.499 65.1028 50.8296 65.8036 50.8296H73.0735C73.7743 50.8296 74.2764 51.499 74.0881 52.1684L73.607 53.8315C73.471 54.2812 73.063 54.595 72.5923 54.595ZM66.2848 76.0471H72.5923C73.063 76.0471 73.471 76.3609 73.607 76.8106L74.0881 78.4737C74.2869 79.1431 73.7743 79.8125 73.0735 79.8125H65.8036C65.1028 79.8125 64.6007 79.1431 64.789 78.4737L65.2701 76.8106C65.4061 76.3504 65.8245 76.0471 66.2848 76.0471Z" fill="#067124"/>
</svg>
