<svg width="120" height="121" viewBox="0 0 120 121" fill="none" xmlns="http://www.w3.org/2000/svg">
<path d="M60 120.05C93.1371 120.05 120 93.189 120 60.0548C120 26.9206 93.1371 0.0599976 60 0.0599976C26.8629 0.0599976 0 26.9206 0 60.0548C0 93.189 26.8629 120.05 60 120.05Z" fill="#9255AE"/>
<path d="M60 114.705C90.1851 114.705 114.655 90.2372 114.655 60.0548C114.655 29.8724 90.1851 5.40472 60 5.40472C29.815 5.40472 5.34521 29.8724 5.34521 60.0548C5.34521 90.2372 29.815 114.705 60 114.705Z" fill="#79D1D7"/>
<path d="M60 0.0704575C26.8619 0.0704575 0 26.93 0 60.0652C0 93.2004 26.8619 120.06 60 120.06C93.1381 120.06 120 93.2004 120 60.0652C120 26.93 93.1381 0.0704575 60 0.0704575ZM60 114.715C29.8117 114.715 5.34519 90.2509 5.34519 60.0652C5.34519 29.8691 29.8117 5.40472 60 5.40472C90.1883 5.40472 114.655 29.8691 114.655 60.0548C114.655 90.2404 90.1883 114.715 60 114.715Z" fill="#9255AE"/>
<path d="M86.569 92.2591L87.8975 96.3696H92.228L88.7238 98.9112L90.0628 103.022L86.569 100.48L83.0649 103.022L84.4038 98.9112L80.91 96.3696H85.2301L86.569 92.2591ZM104.414 69.1753L105.743 73.2858H110.073L106.569 75.8274L107.908 79.938L104.414 77.3963L100.91 79.938L102.249 75.8274L98.7552 73.2858H103.075L104.414 69.1753ZM103.923 40.0879L105.251 44.1984H109.582L106.077 46.74L107.416 50.8505L103.923 48.3089L100.418 50.8505L101.757 46.74L98.2636 44.1984H102.584L103.923 40.0879ZM87.2071 16.4812L88.546 20.5917H92.8661L89.3724 23.1333L90.7113 27.2438L87.2071 24.7022L83.7134 27.2438L85.0523 23.1333L81.5481 20.5917H85.8787L87.2071 16.4812Z" fill="#9255AE"/>
<path d="M60.0523 100.825L61.3912 104.936H65.7113L62.2176 107.477L63.5565 111.588L60.0523 109.046L56.5586 111.588L57.8975 107.477L54.3933 104.936H58.7239L60.0523 100.825Z" fill="#9255AE"/>
<path d="M60.0523 7.64302L61.3912 11.7535H65.7113L62.2176 14.2952L63.5565 18.4057L60.0523 15.8641L56.5586 18.4057L57.8975 14.2952L54.3933 11.7535H58.7238L60.0523 7.64302ZM33.4309 92.2591L32.1025 96.3696H27.7719L31.2761 98.9112L29.9372 103.022L33.4309 100.48L36.9351 103.022L35.5962 98.9112L39.0899 96.3696H34.7699L33.4309 92.2591ZM15.5858 69.1753L14.2573 73.2858H9.92676L13.4309 75.8275L12.092 79.938L15.5858 77.3964L19.0899 79.938L17.751 75.8275L21.2448 73.2858H16.9247L15.5858 69.1753ZM16.0774 40.0879L14.7489 44.1984H10.4184L13.9226 46.74L12.5837 50.8506L16.0774 48.3089L19.5816 50.8506L18.2427 46.74L21.7364 44.1984H17.4163L16.0774 40.0879ZM32.7929 16.4812L31.454 20.5917H27.1339L30.6276 23.1333L29.2887 27.2438L32.7929 24.7022L36.2866 27.2438L34.9477 23.1333L38.4519 20.5917H34.1213L32.7929 16.4812Z" fill="#9255AE"/>
<path d="M93.1276 43.4244C93.1276 43.0583 92.9393 42.7132 92.6569 42.5458L60.0418 24.0328L27.3849 42.5249C27.0711 42.7132 26.8724 43.0583 26.8724 43.4244L26.8201 47.9952C26.8201 48.5704 27.2908 49.0411 27.8661 49.0411H92.1234C92.6987 49.0411 93.1694 48.5704 93.1694 47.9952L93.1276 43.4244Z" fill="#9255AE"/>
<path d="M84.9372 42.1798L60 28.0283L35.0627 42.1798H84.9372Z" fill="#79D1D7"/>
<path d="M75.7636 40.454L60 31.5008L44.2364 40.454H75.7636ZM90.7426 81.601H29.2573C28.6506 81.601 28.0753 81.8625 27.6673 82.3122L23.4414 87.0294C23.1485 87.3536 23.3786 87.8662 23.8179 87.8662H96.182C96.6108 87.8662 96.841 87.3536 96.5585 87.0294L92.3221 82.3122C91.9246 81.8625 91.3389 81.601 90.7426 81.601ZM86.8096 74.792H83.0648C82.4477 74.792 81.9456 74.2899 81.9456 73.6728V56.9588C81.9456 56.3417 82.4477 55.8397 83.0648 55.8397H86.8096C87.4267 55.8397 87.9288 56.3417 87.9288 56.9588V73.6833C87.9288 74.3004 87.4267 74.792 86.8096 74.792ZM88.0962 54.595H81.7887C81.318 54.595 80.91 54.2812 80.774 53.8315L80.2928 52.1684C80.0941 51.499 80.6067 50.8296 81.3075 50.8296H88.5774C89.2782 50.8296 89.7803 51.499 89.592 52.1684L89.1108 53.8315C88.9749 54.2812 88.5564 54.595 88.0962 54.595ZM81.7782 76.0471H88.0857C88.5564 76.0471 88.9644 76.3609 89.1004 76.8106L89.5815 78.4737C89.7803 79.1431 89.2677 79.8125 88.5669 79.8125H81.297C80.5962 79.8125 80.0941 79.1431 80.2824 78.4737L80.7636 76.8106C80.8995 76.3504 81.3179 76.0471 81.7782 76.0471ZM38.1694 74.792H34.4246C33.8075 74.792 33.3054 74.2899 33.3054 73.6728V56.9588C33.3054 56.3417 33.8075 55.8397 34.4246 55.8397H38.1694C38.7866 55.8397 39.2887 56.3417 39.2887 56.9588V73.6833C39.2782 74.3004 38.7761 74.792 38.1694 74.792ZM39.4456 54.595H33.138C32.6673 54.595 32.2594 54.2812 32.1234 53.8315L31.6422 52.1684C31.4435 51.499 31.956 50.8296 32.6569 50.8296H39.9267C40.6276 50.8296 41.1297 51.499 40.9414 52.1684L40.4602 53.8315C40.3242 54.2812 39.9163 54.595 39.4456 54.595ZM33.138 76.0471H39.4456C39.9163 76.0471 40.3242 76.3609 40.4602 76.8106L40.9414 78.4737C41.1401 79.1431 40.6276 79.8125 39.9267 79.8125H32.6569C31.956 79.8125 31.4539 79.1431 31.6422 78.4737L32.1234 76.8106C32.2594 76.3504 32.6673 76.0471 33.138 76.0471ZM54.3828 74.792H50.638C50.0209 74.792 49.5188 74.2899 49.5188 73.6728V56.9588C49.5188 56.3417 50.0209 55.8397 50.638 55.8397H54.3828C55 55.8397 55.502 56.3417 55.502 56.9588V73.6833C55.4993 73.9783 55.3802 74.2603 55.1706 74.4679C54.961 74.6755 54.6778 74.792 54.3828 74.792ZM55.6589 54.595H49.3514C48.8807 54.595 48.4728 54.2812 48.3368 53.8315L47.8556 52.1684C47.6569 51.499 48.1694 50.8296 48.8702 50.8296H56.1401C56.841 50.8296 57.3431 51.499 57.1548 52.1684L56.6736 53.8315C56.5376 54.2812 56.1297 54.595 55.6589 54.595ZM49.3514 76.0471H55.6589C56.1297 76.0471 56.5376 76.3609 56.6736 76.8106L57.1548 78.4737C57.3535 79.1431 56.841 79.8125 56.1401 79.8125H48.8702C48.1694 79.8125 47.6673 79.1431 47.8556 78.4737L48.3368 76.8106C48.4728 76.3504 48.8807 76.0471 49.3514 76.0471ZM70.5962 74.792H66.8514C66.2343 74.792 65.7322 74.2899 65.7322 73.6728V56.9588C65.7322 56.3417 66.2343 55.8397 66.8514 55.8397H70.5962C71.2133 55.8397 71.7154 56.3417 71.7154 56.9588V73.6833C71.7127 73.9783 71.5935 74.2603 71.3839 74.4679C71.1743 74.6755 70.8912 74.792 70.5962 74.792ZM71.8723 54.595H65.5648C65.0941 54.595 64.6861 54.2812 64.5502 53.8315L64.069 52.1684C63.8702 51.499 64.3828 50.8296 65.0836 50.8296H72.3535C73.0543 50.8296 73.5564 51.499 73.3682 52.1684L72.887 53.8315C72.751 54.2812 72.3431 54.595 71.8723 54.595ZM65.5648 76.0471H71.8723C72.3431 76.0471 72.751 76.3609 72.887 76.8106L73.3682 78.4737C73.5669 79.1431 73.0543 79.8125 72.3535 79.8125H65.0836C64.3828 79.8125 63.8807 79.1431 64.069 78.4737L64.5502 76.8106C64.6861 76.3504 65.1046 76.0471 65.5648 76.0471Z" fill="#9255AE"/>
</svg>
