<svg width="120" height="120" viewBox="0 0 120 120" fill="none" xmlns="http://www.w3.org/2000/svg">
<path d="M60 119.99C93.1371 119.99 120 93.129 120 59.9948C120 26.8606 93.1371 0 60 0C26.8629 0 0 26.8606 0 59.9948C0 93.129 26.8629 119.99 60 119.99Z" fill="#896A97"/>
<path d="M60 114.645C90.1851 114.645 114.655 90.1772 114.655 59.9948C114.655 29.8124 90.1851 5.34473 60 5.34473C29.815 5.34473 5.34521 29.8124 5.34521 59.9948C5.34521 90.1772 29.815 114.645 60 114.645Z" fill="#051718"/>
<path d="M60 0.0104599C26.8619 0.0104599 0 26.87 0 60.0052C0 93.1404 26.8619 120 60 120C93.1381 120 120 93.1404 120 60.0052C120 26.87 93.1381 0.0104599 60 0.0104599ZM60 114.655C29.8117 114.655 5.34519 90.1909 5.34519 60.0052C5.34519 29.8091 29.8117 5.34472 60 5.34472C90.1883 5.34472 114.655 29.8091 114.655 59.9948C114.655 90.1804 90.1883 114.655 60 114.655Z" fill="#896A97"/>
<path d="M86.569 92.1991L87.8975 96.3096H92.228L88.7238 98.8512L90.0628 102.962L86.569 100.42L83.0649 102.962L84.4038 98.8512L80.91 96.3096H85.2301L86.569 92.1991ZM104.414 69.1153L105.743 73.2258H110.073L106.569 75.7674L107.908 79.878L104.414 77.3364L100.91 79.878L102.249 75.7674L98.7552 73.2258H103.075L104.414 69.1153ZM103.923 40.0279L105.251 44.1384H109.582L106.077 46.68L107.416 50.7906L103.923 48.2489L100.418 50.7906L101.757 46.68L98.2636 44.1384H102.584L103.923 40.0279ZM87.2071 16.4212L88.546 20.5317H92.8661L89.3724 23.0733L90.7113 27.1838L87.2071 24.6422L83.7134 27.1838L85.0523 23.0733L81.5481 20.5317H85.8787L87.2071 16.4212Z" fill="#896A97"/>
<path d="M60.0523 100.765L61.3912 104.876H65.7113L62.2176 107.417L63.5565 111.528L60.0523 108.986L56.5586 111.528L57.8975 107.417L54.3933 104.876H58.7239L60.0523 100.765Z" fill="#896A97"/>
<path d="M60.0523 7.58302L61.3912 11.6935H65.7113L62.2176 14.2352L63.5565 18.3457L60.0523 15.8041L56.5586 18.3457L57.8975 14.2352L54.3933 11.6935H58.7238L60.0523 7.58302ZM33.4309 92.1991L32.1025 96.3096H27.7719L31.2761 98.8512L29.9372 102.962L33.4309 100.42L36.9351 102.962L35.5962 98.8512L39.0899 96.3096H34.7699L33.4309 92.1991ZM15.5858 69.1153L14.2573 73.2258H9.92676L13.4309 75.7675L12.092 79.878L15.5858 77.3364L19.0899 79.878L17.751 75.7675L21.2448 73.2258H16.9247L15.5858 69.1153ZM16.0774 40.0279L14.7489 44.1384H10.4184L13.9226 46.68L12.5837 50.7906L16.0774 48.2489L19.5816 50.7906L18.2427 46.68L21.7364 44.1384H17.4163L16.0774 40.0279ZM32.7929 16.4212L31.454 20.5317H27.1339L30.6276 23.0733L29.2887 27.1838L32.7929 24.6422L36.2866 27.1838L34.9477 23.0733L38.4519 20.5317H34.1213L32.7929 16.4212Z" fill="#896A97"/>
<path d="M93.1276 43.3644C93.1276 42.9983 92.9393 42.6532 92.6569 42.4858L60.0418 23.9728L27.3849 42.4649C27.0711 42.6532 26.8724 42.9983 26.8724 43.3644L26.8201 47.9352C26.8201 48.5104 27.2908 48.9811 27.8661 48.9811H92.1234C92.6987 48.9811 93.1694 48.5104 93.1694 47.9352L93.1276 43.3644Z" fill="#896A97"/>
<path d="M84.9372 42.1198L60 27.9683L35.0627 42.1198H84.9372Z" fill="#051718"/>
<path d="M75.7636 40.394L60 31.4408L44.2364 40.394H75.7636ZM90.7426 81.541H29.2573C28.6506 81.541 28.0753 81.8025 27.6673 82.2522L23.4414 86.9694C23.1485 87.2936 23.3786 87.8062 23.8179 87.8062H96.182C96.6108 87.8062 96.841 87.2936 96.5585 86.9694L92.3221 82.2522C91.9246 81.8025 91.3389 81.541 90.7426 81.541ZM86.8096 74.732H83.0648C82.4477 74.732 81.9456 74.2299 81.9456 73.6128V56.8988C81.9456 56.2817 82.4477 55.7797 83.0648 55.7797H86.8096C87.4267 55.7797 87.9288 56.2817 87.9288 56.8988V73.6233C87.9288 74.2404 87.4267 74.732 86.8096 74.732ZM88.0962 54.535H81.7887C81.318 54.535 80.91 54.2212 80.774 53.7715L80.2928 52.1084C80.0941 51.439 80.6067 50.7696 81.3075 50.7696H88.5774C89.2782 50.7696 89.7803 51.439 89.592 52.1084L89.1108 53.7715C88.9749 54.2212 88.5564 54.535 88.0962 54.535ZM81.7782 75.9871H88.0857C88.5564 75.9871 88.9644 76.3009 89.1004 76.7506L89.5815 78.4137C89.7803 79.0831 89.2677 79.7525 88.5669 79.7525H81.297C80.5962 79.7525 80.0941 79.0831 80.2824 78.4137L80.7636 76.7506C80.8995 76.2904 81.3179 75.9871 81.7782 75.9871ZM38.1694 74.732H34.4246C33.8075 74.732 33.3054 74.2299 33.3054 73.6128V56.8988C33.3054 56.2817 33.8075 55.7797 34.4246 55.7797H38.1694C38.7866 55.7797 39.2887 56.2817 39.2887 56.8988V73.6233C39.2782 74.2404 38.7761 74.732 38.1694 74.732ZM39.4456 54.535H33.138C32.6673 54.535 32.2594 54.2212 32.1234 53.7715L31.6422 52.1084C31.4435 51.439 31.956 50.7696 32.6569 50.7696H39.9267C40.6276 50.7696 41.1297 51.439 40.9414 52.1084L40.4602 53.7715C40.3242 54.2212 39.9163 54.535 39.4456 54.535ZM33.138 75.9871H39.4456C39.9163 75.9871 40.3242 76.3009 40.4602 76.7506L40.9414 78.4137C41.1401 79.0831 40.6276 79.7525 39.9267 79.7525H32.6569C31.956 79.7525 31.4539 79.0831 31.6422 78.4137L32.1234 76.7506C32.2594 76.2904 32.6673 75.9871 33.138 75.9871ZM54.3828 74.732H50.638C50.0209 74.732 49.5188 74.2299 49.5188 73.6128V56.8988C49.5188 56.2817 50.0209 55.7797 50.638 55.7797H54.3828C55 55.7797 55.502 56.2817 55.502 56.8988V73.6233C55.4993 73.9183 55.3802 74.2003 55.1706 74.4079C54.961 74.6155 54.6778 74.732 54.3828 74.732ZM55.6589 54.535H49.3514C48.8807 54.535 48.4728 54.2212 48.3368 53.7715L47.8556 52.1084C47.6569 51.439 48.1694 50.7696 48.8702 50.7696H56.1401C56.841 50.7696 57.3431 51.439 57.1548 52.1084L56.6736 53.7715C56.5376 54.2212 56.1297 54.535 55.6589 54.535ZM49.3514 75.9871H55.6589C56.1297 75.9871 56.5376 76.3009 56.6736 76.7506L57.1548 78.4137C57.3535 79.0831 56.841 79.7525 56.1401 79.7525H48.8702C48.1694 79.7525 47.6673 79.0831 47.8556 78.4137L48.3368 76.7506C48.4728 76.2904 48.8807 75.9871 49.3514 75.9871ZM70.5962 74.732H66.8514C66.2343 74.732 65.7322 74.2299 65.7322 73.6128V56.8988C65.7322 56.2817 66.2343 55.7797 66.8514 55.7797H70.5962C71.2133 55.7797 71.7154 56.2817 71.7154 56.8988V73.6233C71.7127 73.9183 71.5935 74.2003 71.3839 74.4079C71.1743 74.6155 70.8912 74.732 70.5962 74.732ZM71.8723 54.535H65.5648C65.0941 54.535 64.6861 54.2212 64.5502 53.7715L64.069 52.1084C63.8702 51.439 64.3828 50.7696 65.0836 50.7696H72.3535C73.0543 50.7696 73.5564 51.439 73.3682 52.1084L72.887 53.7715C72.751 54.2212 72.3431 54.535 71.8723 54.535ZM65.5648 75.9871H71.8723C72.3431 75.9871 72.751 76.3009 72.887 76.7506L73.3682 78.4137C73.5669 79.0831 73.0543 79.7525 72.3535 79.7525H65.0836C64.3828 79.7525 63.8807 79.0831 64.069 78.4137L64.5502 76.7506C64.6861 76.2904 65.1046 75.9871 65.5648 75.9871Z" fill="#896A97"/>
</svg>
