<svg width="121" height="120" viewBox="0 0 121 120" fill="none" xmlns="http://www.w3.org/2000/svg">
<path d="M60.36 119.99C93.4971 119.99 120.36 93.129 120.36 59.9948C120.36 26.8606 93.4971 0 60.36 0C27.2229 0 0.359985 26.8606 0.359985 59.9948C0.359985 93.129 27.2229 119.99 60.36 119.99Z" fill="#7B0016"/>
<path d="M60.36 114.645C90.545 114.645 115.015 90.1772 115.015 59.9948C115.015 29.8124 90.545 5.34473 60.36 5.34473C30.175 5.34473 5.7052 29.8124 5.7052 59.9948C5.7052 90.1772 30.175 114.645 60.36 114.645Z" fill="#B79326"/>
<path d="M60.36 0.0104599C27.2219 0.0104599 0.359985 26.87 0.359985 60.0052C0.359985 93.1404 27.2219 120 60.36 120C93.4981 120 120.36 93.1404 120.36 60.0052C120.36 26.87 93.4981 0.0104599 60.36 0.0104599ZM60.36 114.655C30.1717 114.655 5.70517 90.1909 5.70517 60.0052C5.70517 29.8091 30.1717 5.34472 60.36 5.34472C90.5483 5.34472 115.015 29.8091 115.015 59.9948C115.015 90.1804 90.5483 114.655 60.36 114.655Z" fill="#7B0016"/>
<path d="M86.929 92.1991L88.2575 96.3096H92.588L89.0838 98.8512L90.4227 102.962L86.929 100.42L83.4248 102.962L84.7637 98.8512L81.27 96.3096H85.5901L86.929 92.1991ZM104.774 69.1153L106.103 73.2258H110.433L106.929 75.7674L108.268 79.878L104.774 77.3364L101.27 79.878L102.609 75.7674L99.1152 73.2258H103.435L104.774 69.1153ZM104.283 40.0279L105.611 44.1384H109.942L106.437 46.68L107.776 50.7906L104.283 48.2489L100.778 50.7906L102.117 46.68L98.6236 44.1384H102.944L104.283 40.0279ZM87.5671 16.4212L88.906 20.5317H93.2261L89.7324 23.0733L91.0713 27.1838L87.5671 24.6422L84.0734 27.1838L85.4123 23.0733L81.9081 20.5317H86.2386L87.5671 16.4212Z" fill="#7B0016"/>
<path d="M60.4123 100.765L61.7512 104.876H66.0713L62.5776 107.417L63.9165 111.528L60.4123 108.986L56.9186 111.528L58.2575 107.417L54.7533 104.876H59.0838L60.4123 100.765Z" fill="#7B0016"/>
<path d="M60.4123 7.58302L61.7512 11.6935H66.0713L62.5775 14.2352L63.9165 18.3457L60.4123 15.8041L56.9185 18.3457L58.2575 14.2352L54.7533 11.6935H59.0838L60.4123 7.58302ZM33.7909 92.1991L32.4625 96.3096H28.1319L31.6361 98.8512L30.2972 102.962L33.7909 100.42L37.2951 102.962L35.9562 98.8512L39.4499 96.3096H35.1298L33.7909 92.1991ZM15.9457 69.1153L14.6173 73.2258H10.2867L13.7909 75.7675L12.452 79.878L15.9457 77.3364L19.4499 79.878L18.111 75.7675L21.6047 73.2258H17.2847L15.9457 69.1153ZM16.4374 40.0279L15.1089 44.1384H10.7784L14.2826 46.68L12.9436 50.7906L16.4374 48.2489L19.9416 50.7906L18.6026 46.68L22.0964 44.1384H17.7763L16.4374 40.0279ZM33.1529 16.4212L31.8139 20.5317H27.4939L30.9876 23.0733L29.6487 27.1838L33.1529 24.6422L36.6466 27.1838L35.3077 23.0733L38.8118 20.5317H34.4813L33.1529 16.4212Z" fill="#7B0016"/>
<path d="M93.4876 43.3644C93.4876 42.9983 93.2993 42.6532 93.0169 42.4858L60.4018 23.9728L27.7449 42.4649C27.4311 42.6532 27.2324 42.9983 27.2324 43.3644L27.1801 47.9352C27.1801 48.5104 27.6508 48.9811 28.2261 48.9811H92.4834C93.0587 48.9811 93.5294 48.5104 93.5294 47.9352L93.4876 43.3644Z" fill="#7B0016"/>
<path d="M85.2972 42.1198L60.36 27.9683L35.4227 42.1198H85.2972Z" fill="#B79326"/>
<path d="M76.1235 40.394L60.3599 31.4408L44.5963 40.394H76.1235ZM91.1026 81.541H29.6173C29.0106 81.541 28.4353 81.8025 28.0273 82.2522L23.8014 86.9694C23.5085 87.2936 23.7386 87.8062 24.1779 87.8062H96.5419C96.9708 87.8062 97.2009 87.2936 96.9185 86.9694L92.6821 82.2522C92.2846 81.8025 91.6989 81.541 91.1026 81.541ZM87.1696 74.732H83.4248C82.8076 74.732 82.3056 74.2299 82.3056 73.6128V56.8988C82.3056 56.2817 82.8076 55.7797 83.4248 55.7797H87.1696C87.7867 55.7797 88.2888 56.2817 88.2888 56.8988V73.6233C88.2888 74.2404 87.7867 74.732 87.1696 74.732ZM88.4562 54.535H82.1486C81.6779 54.535 81.27 54.2212 81.134 53.7715L80.6528 52.1084C80.4541 51.439 80.9666 50.7696 81.6675 50.7696H88.9373C89.6382 50.7696 90.1403 51.439 89.952 52.1084L89.4708 53.7715C89.3348 54.2212 88.9164 54.535 88.4562 54.535ZM82.1382 75.9871H88.4457C88.9164 75.9871 89.3244 76.3009 89.4604 76.7506L89.9415 78.4137C90.1403 79.0831 89.6277 79.7525 88.9269 79.7525H81.657C80.9562 79.7525 80.4541 79.0831 80.6424 78.4137L81.1235 76.7506C81.2595 76.2904 81.6779 75.9871 82.1382 75.9871ZM38.5294 74.732H34.7846C34.1675 74.732 33.6654 74.2299 33.6654 73.6128V56.8988C33.6654 56.2817 34.1675 55.7797 34.7846 55.7797H38.5294C39.1466 55.7797 39.6486 56.2817 39.6486 56.8988V73.6233C39.6382 74.2404 39.1361 74.732 38.5294 74.732ZM39.8055 54.535H33.498C33.0273 54.535 32.6194 54.2212 32.4834 53.7715L32.0022 52.1084C31.8035 51.439 32.316 50.7696 33.0168 50.7696H40.2867C40.9876 50.7696 41.4896 51.439 41.3014 52.1084L40.8202 53.7715C40.6842 54.2212 40.2763 54.535 39.8055 54.535ZM33.498 75.9871H39.8055C40.2763 75.9871 40.6842 76.3009 40.8202 76.7506L41.3014 78.4137C41.5001 79.0831 40.9876 79.7525 40.2867 79.7525H33.0168C32.316 79.7525 31.8139 79.0831 32.0022 78.4137L32.4834 76.7506C32.6194 76.2904 33.0273 75.9871 33.498 75.9871ZM54.7428 74.732H50.998C50.3809 74.732 49.8788 74.2299 49.8788 73.6128V56.8988C49.8788 56.2817 50.3809 55.7797 50.998 55.7797H54.7428C55.3599 55.7797 55.862 56.2817 55.862 56.8988V73.6233C55.8593 73.9183 55.7401 74.2003 55.5305 74.4079C55.3209 74.6155 55.0378 74.732 54.7428 74.732ZM56.0189 54.535H49.7114C49.2407 54.535 48.8327 54.2212 48.6968 53.7715L48.2156 52.1084C48.0168 51.439 48.5294 50.7696 49.2302 50.7696H56.5001C57.2009 50.7696 57.703 51.439 57.5148 52.1084L57.0336 53.7715C56.8976 54.2212 56.4896 54.535 56.0189 54.535ZM49.7114 75.9871H56.0189C56.4896 75.9871 56.8976 76.3009 57.0336 76.7506L57.5148 78.4137C57.7135 79.0831 57.2009 79.7525 56.5001 79.7525H49.2302C48.5294 79.7525 48.0273 79.0831 48.2156 78.4137L48.6968 76.7506C48.8327 76.2904 49.2407 75.9871 49.7114 75.9871ZM70.9562 74.732H67.2114C66.5943 74.732 66.0922 74.2299 66.0922 73.6128V56.8988C66.0922 56.2817 66.5943 55.7797 67.2114 55.7797H70.9562C71.5733 55.7797 72.0754 56.2817 72.0754 56.8988V73.6233C72.0727 73.9183 71.9535 74.2003 71.7439 74.4079C71.5343 74.6155 71.2512 74.732 70.9562 74.732ZM72.2323 54.535H65.9248C65.4541 54.535 65.0461 54.2212 64.9102 53.7715L64.429 52.1084C64.2302 51.439 64.7428 50.7696 65.4436 50.7696H72.7135C73.4143 50.7696 73.9164 51.439 73.7281 52.1084L73.247 53.7715C73.111 54.2212 72.703 54.535 72.2323 54.535ZM65.9248 75.9871H72.2323C72.703 75.9871 73.111 76.3009 73.247 76.7506L73.7281 78.4137C73.9269 79.0831 73.4143 79.7525 72.7135 79.7525H65.4436C64.7428 79.7525 64.2407 79.0831 64.429 78.4137L64.9102 76.7506C65.0461 76.2904 65.4645 75.9871 65.9248 75.9871Z" fill="#7B0016"/>
</svg>
