<svg width="121" height="121" viewBox="0 0 121 121" fill="none" xmlns="http://www.w3.org/2000/svg">
<path d="M60.36 120.05C93.4971 120.05 120.36 93.189 120.36 60.0548C120.36 26.9206 93.4971 0.0599976 60.36 0.0599976C27.2229 0.0599976 0.359985 26.9206 0.359985 60.0548C0.359985 93.189 27.2229 120.05 60.36 120.05Z" fill="#3CEF63"/>
<path d="M60.36 114.705C90.545 114.705 115.015 90.2372 115.015 60.0548C115.015 29.8724 90.545 5.40472 60.36 5.40472C30.175 5.40472 5.7052 29.8724 5.7052 60.0548C5.7052 90.2372 30.175 114.705 60.36 114.705Z" fill="#403D36"/>
<path d="M60.36 0.0704575C27.2219 0.0704575 0.359985 26.93 0.359985 60.0652C0.359985 93.2004 27.2219 120.06 60.36 120.06C93.4981 120.06 120.36 93.2004 120.36 60.0652C120.36 26.93 93.4981 0.0704575 60.36 0.0704575ZM60.36 114.715C30.1717 114.715 5.70517 90.2509 5.70517 60.0652C5.70517 29.8691 30.1717 5.40472 60.36 5.40472C90.5483 5.40472 115.015 29.8691 115.015 60.0548C115.015 90.2404 90.5483 114.715 60.36 114.715Z" fill="#3CEF63"/>
<path d="M86.929 92.2591L88.2575 96.3696H92.588L89.0838 98.9112L90.4227 103.022L86.929 100.48L83.4248 103.022L84.7637 98.9112L81.27 96.3696H85.5901L86.929 92.2591ZM104.774 69.1753L106.103 73.2858H110.433L106.929 75.8274L108.268 79.938L104.774 77.3963L101.27 79.938L102.609 75.8274L99.1152 73.2858H103.435L104.774 69.1753ZM104.283 40.0879L105.611 44.1984H109.942L106.437 46.74L107.776 50.8505L104.283 48.3089L100.778 50.8505L102.117 46.74L98.6236 44.1984H102.944L104.283 40.0879ZM87.5671 16.4812L88.906 20.5917H93.2261L89.7324 23.1333L91.0713 27.2438L87.5671 24.7022L84.0734 27.2438L85.4123 23.1333L81.9081 20.5917H86.2386L87.5671 16.4812Z" fill="#3CEF63"/>
<path d="M60.4123 100.825L61.7512 104.936H66.0713L62.5776 107.477L63.9165 111.588L60.4123 109.046L56.9186 111.588L58.2575 107.477L54.7533 104.936H59.0838L60.4123 100.825Z" fill="#3CEF63"/>
<path d="M60.4123 7.64302L61.7512 11.7535H66.0713L62.5775 14.2952L63.9165 18.4057L60.4123 15.8641L56.9185 18.4057L58.2575 14.2952L54.7533 11.7535H59.0838L60.4123 7.64302ZM33.7909 92.2591L32.4625 96.3696H28.1319L31.6361 98.9112L30.2972 103.022L33.7909 100.48L37.2951 103.022L35.9562 98.9112L39.4499 96.3696H35.1298L33.7909 92.2591ZM15.9457 69.1753L14.6173 73.2858H10.2867L13.7909 75.8275L12.452 79.938L15.9457 77.3964L19.4499 79.938L18.111 75.8275L21.6047 73.2858H17.2847L15.9457 69.1753ZM16.4374 40.0879L15.1089 44.1984H10.7784L14.2826 46.74L12.9436 50.8506L16.4374 48.3089L19.9416 50.8506L18.6026 46.74L22.0964 44.1984H17.7763L16.4374 40.0879ZM33.1529 16.4812L31.8139 20.5917H27.4939L30.9876 23.1333L29.6487 27.2438L33.1529 24.7022L36.6466 27.2438L35.3077 23.1333L38.8118 20.5917H34.4813L33.1529 16.4812Z" fill="#3CEF63"/>
<path d="M93.4876 43.4244C93.4876 43.0583 93.2993 42.7132 93.0169 42.5458L60.4018 24.0328L27.7449 42.5249C27.4311 42.7132 27.2324 43.0583 27.2324 43.4244L27.1801 47.9952C27.1801 48.5704 27.6508 49.0411 28.2261 49.0411H92.4834C93.0587 49.0411 93.5294 48.5704 93.5294 47.9952L93.4876 43.4244Z" fill="#3CEF63"/>
<path d="M85.2972 42.1798L60.36 28.0283L35.4227 42.1798H85.2972Z" fill="#403D36"/>
<path d="M76.1235 40.454L60.3599 31.5008L44.5963 40.454H76.1235ZM91.1026 81.601H29.6173C29.0106 81.601 28.4353 81.8625 28.0273 82.3122L23.8014 87.0294C23.5085 87.3536 23.7386 87.8662 24.1779 87.8662H96.5419C96.9708 87.8662 97.2009 87.3536 96.9185 87.0294L92.6821 82.3122C92.2846 81.8625 91.6989 81.601 91.1026 81.601ZM87.1696 74.792H83.4248C82.8076 74.792 82.3056 74.2899 82.3056 73.6728V56.9588C82.3056 56.3417 82.8076 55.8397 83.4248 55.8397H87.1696C87.7867 55.8397 88.2888 56.3417 88.2888 56.9588V73.6833C88.2888 74.3004 87.7867 74.792 87.1696 74.792ZM88.4562 54.595H82.1486C81.6779 54.595 81.27 54.2812 81.134 53.8315L80.6528 52.1684C80.4541 51.499 80.9666 50.8296 81.6675 50.8296H88.9373C89.6382 50.8296 90.1403 51.499 89.952 52.1684L89.4708 53.8315C89.3348 54.2812 88.9164 54.595 88.4562 54.595ZM82.1382 76.0471H88.4457C88.9164 76.0471 89.3244 76.3609 89.4604 76.8106L89.9415 78.4737C90.1403 79.1431 89.6277 79.8125 88.9269 79.8125H81.657C80.9562 79.8125 80.4541 79.1431 80.6424 78.4737L81.1235 76.8106C81.2595 76.3504 81.6779 76.0471 82.1382 76.0471ZM38.5294 74.792H34.7846C34.1675 74.792 33.6654 74.2899 33.6654 73.6728V56.9588C33.6654 56.3417 34.1675 55.8397 34.7846 55.8397H38.5294C39.1466 55.8397 39.6486 56.3417 39.6486 56.9588V73.6833C39.6382 74.3004 39.1361 74.792 38.5294 74.792ZM39.8055 54.595H33.498C33.0273 54.595 32.6194 54.2812 32.4834 53.8315L32.0022 52.1684C31.8035 51.499 32.316 50.8296 33.0168 50.8296H40.2867C40.9876 50.8296 41.4896 51.499 41.3014 52.1684L40.8202 53.8315C40.6842 54.2812 40.2763 54.595 39.8055 54.595ZM33.498 76.0471H39.8055C40.2763 76.0471 40.6842 76.3609 40.8202 76.8106L41.3014 78.4737C41.5001 79.1431 40.9876 79.8125 40.2867 79.8125H33.0168C32.316 79.8125 31.8139 79.1431 32.0022 78.4737L32.4834 76.8106C32.6194 76.3504 33.0273 76.0471 33.498 76.0471ZM54.7428 74.792H50.998C50.3809 74.792 49.8788 74.2899 49.8788 73.6728V56.9588C49.8788 56.3417 50.3809 55.8397 50.998 55.8397H54.7428C55.3599 55.8397 55.862 56.3417 55.862 56.9588V73.6833C55.8593 73.9783 55.7401 74.2603 55.5305 74.4679C55.3209 74.6755 55.0378 74.792 54.7428 74.792ZM56.0189 54.595H49.7114C49.2407 54.595 48.8327 54.2812 48.6968 53.8315L48.2156 52.1684C48.0168 51.499 48.5294 50.8296 49.2302 50.8296H56.5001C57.2009 50.8296 57.703 51.499 57.5148 52.1684L57.0336 53.8315C56.8976 54.2812 56.4896 54.595 56.0189 54.595ZM49.7114 76.0471H56.0189C56.4896 76.0471 56.8976 76.3609 57.0336 76.8106L57.5148 78.4737C57.7135 79.1431 57.2009 79.8125 56.5001 79.8125H49.2302C48.5294 79.8125 48.0273 79.1431 48.2156 78.4737L48.6968 76.8106C48.8327 76.3504 49.2407 76.0471 49.7114 76.0471ZM70.9562 74.792H67.2114C66.5943 74.792 66.0922 74.2899 66.0922 73.6728V56.9588C66.0922 56.3417 66.5943 55.8397 67.2114 55.8397H70.9562C71.5733 55.8397 72.0754 56.3417 72.0754 56.9588V73.6833C72.0727 73.9783 71.9535 74.2603 71.7439 74.4679C71.5343 74.6755 71.2512 74.792 70.9562 74.792ZM72.2323 54.595H65.9248C65.4541 54.595 65.0461 54.2812 64.9102 53.8315L64.429 52.1684C64.2302 51.499 64.7428 50.8296 65.4436 50.8296H72.7135C73.4143 50.8296 73.9164 51.499 73.7281 52.1684L73.247 53.8315C73.111 54.2812 72.703 54.595 72.2323 54.595ZM65.9248 76.0471H72.2323C72.703 76.0471 73.111 76.3609 73.247 76.8106L73.7281 78.4737C73.9269 79.1431 73.4143 79.8125 72.7135 79.8125H65.4436C64.7428 79.8125 64.2407 79.1431 64.429 78.4737L64.9102 76.8106C65.0461 76.3504 65.4645 76.0471 65.9248 76.0471Z" fill="#3CEF63"/>
</svg>
