<svg width="121" height="120" viewBox="0 0 121 120" fill="none" xmlns="http://www.w3.org/2000/svg">
<path d="M60.72 119.99C93.857 119.99 120.72 93.129 120.72 59.9948C120.72 26.8606 93.857 0 60.72 0C27.5829 0 0.719971 26.8606 0.719971 59.9948C0.719971 93.129 27.5829 119.99 60.72 119.99Z" fill="#065171"/>
<path d="M60.72 114.645C90.905 114.645 115.375 90.1772 115.375 59.9948C115.375 29.8124 90.905 5.34473 60.72 5.34473C30.535 5.34473 6.06519 29.8124 6.06519 59.9948C6.06519 90.1772 30.535 114.645 60.72 114.645Z" fill="#24CF35"/>
<path d="M60.72 0.0104599C27.5819 0.0104599 0.719971 26.87 0.719971 60.0052C0.719971 93.1404 27.5819 120 60.72 120C93.858 120 120.72 93.1404 120.72 60.0052C120.72 26.87 93.858 0.0104599 60.72 0.0104599ZM60.72 114.655C30.5317 114.655 6.06516 90.1909 6.06516 60.0052C6.06516 29.8091 30.5317 5.34472 60.72 5.34472C90.9083 5.34472 115.375 29.8091 115.375 59.9948C115.375 90.1804 90.9083 114.655 60.72 114.655Z" fill="#065171"/>
<path d="M87.289 92.1991L88.6175 96.3096H92.948L89.4438 98.8512L90.7827 102.962L87.289 100.42L83.7848 102.962L85.1237 98.8512L81.63 96.3096H85.9501L87.289 92.1991ZM105.134 69.1153L106.463 73.2258H110.793L107.289 75.7674L108.628 79.878L105.134 77.3364L101.63 79.878L102.969 75.7674L99.4752 73.2258H103.795L105.134 69.1153ZM104.643 40.0279L105.971 44.1384H110.302L106.797 46.68L108.136 50.7906L104.643 48.2489L101.138 50.7906L102.477 46.68L98.9836 44.1384H103.304L104.643 40.0279ZM87.9271 16.4212L89.266 20.5317H93.5861L90.0924 23.0733L91.4313 27.1838L87.9271 24.6422L84.4334 27.1838L85.7723 23.0733L82.2681 20.5317H86.5986L87.9271 16.4212Z" fill="#065171"/>
<path d="M60.7723 100.765L62.1112 104.876H66.4313L62.9376 107.417L64.2765 111.528L60.7723 108.986L57.2786 111.528L58.6175 107.417L55.1133 104.876H59.4438L60.7723 100.765Z" fill="#065171"/>
<path d="M60.7723 7.58302L62.1112 11.6935H66.4312L62.9375 14.2352L64.2764 18.3457L60.7723 15.8041L57.2785 18.3457L58.6174 14.2352L55.1133 11.6935H59.4438L60.7723 7.58302ZM34.1509 92.1991L32.8225 96.3096H28.4919L31.9961 98.8512L30.6572 102.962L34.1509 100.42L37.6551 102.962L36.3162 98.8512L39.8099 96.3096H35.4898L34.1509 92.1991ZM16.3057 69.1153L14.9773 73.2258H10.6467L14.1509 75.7675L12.812 79.878L16.3057 77.3364L19.8099 79.878L18.471 75.7675L21.9647 73.2258H17.6446L16.3057 69.1153ZM16.7974 40.0279L15.4689 44.1384H11.1384L14.6425 46.68L13.3036 50.7906L16.7974 48.2489L20.3015 50.7906L18.9626 46.68L22.4564 44.1384H18.1363L16.7974 40.0279ZM33.5128 16.4212L32.1739 20.5317H27.8538L31.3476 23.0733L30.0087 27.1838L33.5128 24.6422L37.0066 27.1838L35.6676 23.0733L39.1718 20.5317H34.8413L33.5128 16.4212Z" fill="#065171"/>
<path d="M93.8476 43.3644C93.8476 42.9983 93.6593 42.6532 93.3769 42.4858L60.7618 23.9728L28.1049 42.4649C27.7911 42.6532 27.5923 42.9983 27.5923 43.3644L27.54 47.9352C27.54 48.5104 28.0108 48.9811 28.5861 48.9811H92.8434C93.4187 48.9811 93.8894 48.5104 93.8894 47.9352L93.8476 43.3644Z" fill="#065171"/>
<path d="M85.6572 42.1198L60.72 27.9683L35.7827 42.1198H85.6572Z" fill="#24CF35"/>
<path d="M76.4835 40.394L60.7199 31.4408L44.9563 40.394H76.4835ZM91.4626 81.541H29.9772C29.3706 81.541 28.7952 81.8025 28.3873 82.2522L24.1613 86.9694C23.8685 87.2936 24.0986 87.8062 24.5379 87.8062H96.9019C97.3308 87.8062 97.5609 87.2936 97.2785 86.9694L93.0421 82.2522C92.6446 81.8025 92.0588 81.541 91.4626 81.541ZM87.5296 74.732H83.7848C83.1676 74.732 82.6655 74.2299 82.6655 73.6128V56.8988C82.6655 56.2817 83.1676 55.7797 83.7848 55.7797H87.5296C88.1467 55.7797 88.6488 56.2817 88.6488 56.8988V73.6233C88.6488 74.2404 88.1467 74.732 87.5296 74.732ZM88.8162 54.535H82.5086C82.0379 54.535 81.63 54.2212 81.494 53.7715L81.0128 52.1084C80.8141 51.439 81.3266 50.7696 82.0275 50.7696H89.2973C89.9982 50.7696 90.5003 51.439 90.312 52.1084L89.8308 53.7715C89.6948 54.2212 89.2764 54.535 88.8162 54.535ZM82.4982 75.9871H88.8057C89.2764 75.9871 89.6844 76.3009 89.8203 76.7506L90.3015 78.4137C90.5003 79.0831 89.9877 79.7525 89.2869 79.7525H82.017C81.3162 79.7525 80.8141 79.0831 81.0024 78.4137L81.4835 76.7506C81.6195 76.2904 82.0379 75.9871 82.4982 75.9871ZM38.8894 74.732H35.1446C34.5275 74.732 34.0254 74.2299 34.0254 73.6128V56.8988C34.0254 56.2817 34.5275 55.7797 35.1446 55.7797H38.8894C39.5065 55.7797 40.0086 56.2817 40.0086 56.8988V73.6233C39.9982 74.2404 39.4961 74.732 38.8894 74.732ZM40.1655 54.535H33.858C33.3873 54.535 32.9793 54.2212 32.8434 53.7715L32.3622 52.1084C32.1634 51.439 32.676 50.7696 33.3768 50.7696H40.6467C41.3475 50.7696 41.8496 51.439 41.6613 52.1084L41.1802 53.7715C41.0442 54.2212 40.6362 54.535 40.1655 54.535ZM33.858 75.9871H40.1655C40.6362 75.9871 41.0442 76.3009 41.1802 76.7506L41.6613 78.4137C41.8601 79.0831 41.3475 79.7525 40.6467 79.7525H33.3768C32.676 79.7525 32.1739 79.0831 32.3622 78.4137L32.8434 76.7506C32.9793 76.2904 33.3873 75.9871 33.858 75.9871ZM55.1028 74.732H51.358C50.7408 74.732 50.2388 74.2299 50.2388 73.6128V56.8988C50.2388 56.2817 50.7408 55.7797 51.358 55.7797H55.1028C55.7199 55.7797 56.222 56.2817 56.222 56.8988V73.6233C56.2193 73.9183 56.1001 74.2003 55.8905 74.4079C55.6809 74.6155 55.3978 74.732 55.1028 74.732ZM56.3789 54.535H50.0714C49.6007 54.535 49.1927 54.2212 49.0567 53.7715L48.5756 52.1084C48.3768 51.439 48.8894 50.7696 49.5902 50.7696H56.8601C57.5609 50.7696 58.063 51.439 57.8747 52.1084L57.3936 53.7715C57.2576 54.2212 56.8496 54.535 56.3789 54.535ZM50.0714 75.9871H56.3789C56.8496 75.9871 57.2576 76.3009 57.3936 76.7506L57.8747 78.4137C58.0735 79.0831 57.5609 79.7525 56.8601 79.7525H49.5902C48.8894 79.7525 48.3873 79.0831 48.5756 78.4137L49.0567 76.7506C49.1927 76.2904 49.6007 75.9871 50.0714 75.9871ZM71.3162 74.732H67.5714C66.9542 74.732 66.4521 74.2299 66.4521 73.6128V56.8988C66.4521 56.2817 66.9542 55.7797 67.5714 55.7797H71.3162C71.9333 55.7797 72.4354 56.2817 72.4354 56.8988V73.6233C72.4326 73.9183 72.3135 74.2003 72.1039 74.4079C71.8943 74.6155 71.6112 74.732 71.3162 74.732ZM72.5923 54.535H66.2848C65.8141 54.535 65.4061 54.2212 65.2701 53.7715L64.789 52.1084C64.5902 51.439 65.1028 50.7696 65.8036 50.7696H73.0735C73.7743 50.7696 74.2764 51.439 74.0881 52.1084L73.607 53.7715C73.471 54.2212 73.063 54.535 72.5923 54.535ZM66.2848 75.9871H72.5923C73.063 75.9871 73.471 76.3009 73.607 76.7506L74.0881 78.4137C74.2869 79.0831 73.7743 79.7525 73.0735 79.7525H65.8036C65.1028 79.7525 64.6007 79.0831 64.789 78.4137L65.2701 76.7506C65.4061 76.2904 65.8245 75.9871 66.2848 75.9871Z" fill="#065171"/>
</svg>
